<svg width="512" height="497" viewBox="0 0 512 497" fill="none" xmlns="http://www.w3.org/2000/svg">
<g clip-path="url(#clip0_630_1254)">
<circle cx="256" cy="248" r="250" fill="#18181B"/>
<path d="M268.462 333.135V350.058H251.538V333.135H268.462V316.212H285.385V248.52H234.615V265.443H200.769V333.135H217.692V350.058H251.538V366.981H166.923V350.058H150V282.366H166.923V265.443H183.846V248.52H234.615V231.597H285.385V180.828H268.462V163.905H251.538V146.981H217.692V163.905H183.846V180.828H200.769V214.674H166.923V197.751H150V180.828H166.923V163.905H183.846V146.981H217.692V130.058H268.462V146.981H319.231V163.905H336.154V350.058H353.077V366.981H285.385V333.135H268.462ZM370 350.058H353.077V333.135H370V350.058Z" fill="#D4D4D8"/>
</g>
<defs>
<clipPath id="clip0_630_1254">
<rect width="512" height="497" fill="white"/>
</clipPath>
</defs>
</svg>
