<svg width="512" height="512" viewBox="0 0 512 512" fill="none" xmlns="http://www.w3.org/2000/svg">
<circle cx="256" cy="256" r="250" fill="#18181B"/>
<path d="M268.462 334.135V351.058H251.538V334.135H268.462V317.212H285.385V249.52H234.615V266.443H200.769V334.135H217.692V351.058H251.538V367.981H166.923V351.058H150V283.366H166.923V266.443H183.846V249.52H234.615V232.597H285.385V181.828H268.462V164.905H251.538V147.981H217.692V164.905H183.846V181.828H200.769V215.674H166.923V198.751H150V181.828H166.923V164.905H183.846V147.981H217.692V131.058H268.462V147.981H319.231V164.905H336.154V351.058H353.077V367.981H285.385V334.135H268.462ZM370 351.058H353.077V334.135H370V351.058Z" fill="#D4D4D8"/>
</svg>
