<svg width="556" height="114" viewBox="0 0 556 114" fill="none" xmlns="http://www.w3.org/2000/svg">
<path opacity="0.5" fill-rule="evenodd" clip-rule="evenodd" d="M70 24C55.6 24 46.6 31.2 43 45.6C48.4 38.4 54.7 35.7 61.9 37.5C66.008 38.526 68.944 41.508 72.194 44.806C77.488 50.18 83.616 56.4 97 56.4C111.4 56.4 120.4 49.2 124 34.8C118.6 42 112.3 44.7 105.1 42.9C100.992 41.874 98.056 38.892 94.806 35.594C89.512 30.22 83.384 24 70 24ZM43 56.4C28.6 56.4 19.6 63.6 16 78C21.4 70.8 27.7 68.1 34.9 69.9C39.008 70.928 41.944 73.908 45.194 77.206C50.488 82.58 56.616 88.8 70 88.8C84.4 88.8 93.4 81.6 97 67.2C91.6 74.4 85.3 77.1 78.1 75.3C73.992 74.274 71.056 71.292 67.806 67.994C62.512 62.62 56.384 56.4 43 56.4Z" fill="#41D9FB"/>
<g filter="url(#filter0_i_620_2)">
<path fill-rule="evenodd" clip-rule="evenodd" d="M70 24C55.6 24 46.6 31.2 43 45.6C48.4 38.4 54.7 35.7 61.9 37.5C66.008 38.526 68.944 41.508 72.194 44.806C77.488 50.18 83.616 56.4 97 56.4C111.4 56.4 120.4 49.2 124 34.8C118.6 42 112.3 44.7 105.1 42.9C100.992 41.874 98.056 38.892 94.806 35.594C89.512 30.22 83.384 24 70 24ZM43 56.4C28.6 56.4 19.6 63.6 16 78C21.4 70.8 27.7 68.1 34.9 69.9C39.008 70.928 41.944 73.908 45.194 77.206C50.488 82.58 56.616 88.8 70 88.8C84.4 88.8 93.4 81.6 97 67.2C91.6 74.4 85.3 77.1 78.1 75.3C73.992 74.274 71.056 71.292 67.806 67.994C62.512 62.62 56.384 56.4 43 56.4Z" fill="url(#paint0_linear_620_2)"/>
</g>
<path d="M46.6331 39.5813C48.0809 38.4089 49.597 37.4765 51.1841 36.7963C54.6608 35.3063 58.3735 35.0723 62.2635 36.0447L46.6331 39.5813ZM46.6331 39.5813C48.3492 35.7801 50.6103 32.7927 53.387 30.5713C57.5603 27.2327 63.0537 25.5 70 25.5C76.4383 25.5 81.0569 26.9904 84.6882 29.0816C88.3541 31.1927 91.0781 33.9472 93.7374 36.6467L93.7376 36.6469L93.8892 36.8007C97.0248 39.9835 100.221 43.2274 104.737 44.3553C108.626 45.3277 112.339 45.0937 115.816 43.6037C117.403 42.9235 118.919 41.9911 120.367 40.8187C118.651 44.6199 116.39 47.6073 113.613 49.8287C109.44 53.1673 103.946 54.9 97 54.9C90.5617 54.9 85.9431 53.4096 82.3118 51.3184C78.6459 49.2073 75.9219 46.4528 73.2626 43.7533L73.2624 43.7531L73.1108 43.5993C69.9753 40.4166 66.7796 37.1728 62.2638 36.0448L46.6331 39.5813ZM93.3669 73.2187C91.6508 77.0199 89.3897 80.0073 86.613 82.2287C82.4397 85.5673 76.9463 87.3 70 87.3C63.5617 87.3 58.9431 85.8096 55.3118 83.7184C51.6459 81.6073 48.9219 78.8528 46.2626 76.1533L46.2624 76.1531L46.1164 76.005C42.9786 72.82 39.7822 69.5755 35.2641 68.4449L35.2638 68.4448C31.3737 67.4723 27.6609 67.7062 24.1841 69.1963C22.597 69.8765 21.0809 70.8089 19.6331 71.9813C21.3492 68.1801 23.6103 65.1927 26.387 62.9713C30.5603 59.6327 36.0537 57.9 43 57.9C49.4383 57.9 54.0569 59.3904 57.6882 61.4816C61.3541 63.5927 64.0781 66.3472 66.7374 69.0467L66.7376 69.0469C66.7881 69.0981 66.8386 69.1494 66.8892 69.2007C70.0247 72.3834 73.2204 75.6272 77.7362 76.7552C81.6263 77.7277 85.3391 77.4938 88.8159 76.0037C90.403 75.3235 91.9191 74.3911 93.3669 73.2187Z" stroke="white" stroke-width="3"/>
<path opacity="0.5" d="M122.87 36.9947C121.025 42.9619 118.14 47.4875 114.238 50.6096C109.847 54.1224 104.115 55.9 97 55.9C90.3926 55.9 85.601 54.3665 81.8128 52.185C78.013 49.9968 75.2013 47.1463 72.5502 44.4551L72.5501 44.455L72.4888 44.3928C69.2835 41.1401 66.2624 38.0742 62.0213 37.0149C58.3246 36.0908 54.837 36.3187 51.578 37.7154C48.9223 38.8536 46.4414 40.7578 44.1305 43.4053C45.9747 37.4381 48.8597 32.9125 52.7623 29.7904C57.1534 26.2776 62.8846 24.5 70 24.5C76.6074 24.5 81.399 26.0335 85.1872 28.215C88.987 30.4032 91.7987 33.2537 94.4498 35.9449L94.4499 35.945L94.5112 36.0072C97.7165 39.2599 100.738 42.3258 104.979 43.3851L122.87 36.9947ZM122.87 36.9947C120.559 39.6422 118.078 41.5464 115.422 42.6846C112.163 44.0812 108.675 44.3092 104.979 43.3851L122.87 36.9947ZM35.0214 69.415L35.0213 69.4149C31.3246 68.4908 27.837 68.7187 24.578 70.1154C21.9223 71.2536 19.4414 73.1578 17.1305 75.8053C18.9747 69.8381 21.8597 65.3125 25.7623 62.1904C30.1534 58.6776 35.8846 56.9 43 56.9C49.6074 56.9 54.399 58.4335 58.1872 60.615C61.987 62.8032 64.7987 65.6537 67.4498 68.3449L67.4499 68.345L67.5112 68.4072C70.7165 71.6599 73.7376 74.7258 77.9787 75.7851C81.6754 76.7092 85.163 76.4813 88.422 75.0846C91.0777 73.9464 93.5586 72.0422 95.8695 69.3947C94.0253 75.3619 91.1403 79.8875 87.2377 83.0096C82.8466 86.5224 77.1154 88.3 70 88.3C63.3926 88.3 58.601 86.7665 54.8128 84.585C51.013 82.3968 48.2013 79.5463 45.5502 76.8551L45.5501 76.855L45.4948 76.7989C42.2871 73.5437 39.265 70.4769 35.0214 69.415Z" stroke="#97FFFE"/>
<path fill-rule="evenodd" clip-rule="evenodd" d="M177.992 51.304H168.568V69.544C168.568 74.408 171.76 74.332 177.992 74.028V81.4C165.376 82.92 160.36 79.424 160.36 69.544V51.304H153.368V43.3999H160.36V33.1919L168.568 30.7599V43.3999H177.992V51.304ZM213.916 43.3999H222.124V81.4H213.916V75.928C211.028 79.956 206.544 82.388 200.616 82.388C190.28 82.388 181.692 73.648 181.692 62.4C181.692 51.076 190.28 42.4119 200.616 42.4119C206.544 42.4119 211.028 44.844 213.916 48.796V43.3999ZM201.908 74.56C208.748 74.56 213.916 69.468 213.916 62.4C213.916 55.332 208.748 50.24 201.908 50.24C195.068 50.24 189.9 55.332 189.9 62.4C189.9 69.468 195.068 74.56 201.908 74.56ZM235.804 37.6999C232.916 37.6999 230.56 35.2679 230.56 32.4559C230.562 31.0659 231.116 29.7336 232.098 28.7508C233.082 27.7679 234.414 27.2146 235.804 27.2119C237.194 27.2146 238.526 27.7679 239.51 28.7508C240.492 29.7336 241.046 31.0659 241.048 32.4559C241.048 35.2679 238.692 37.6999 235.804 37.6999ZM231.7 81.4V43.3999H239.908V81.4H231.7ZM249.408 81.4V25.9199H257.616V81.4H249.408ZM310.892 43.3999H319.556L307.624 81.4H299.568L291.664 55.788L283.684 81.4H275.628L263.696 43.3999H272.36L279.732 69.62L287.712 43.3999H295.54L303.444 69.62L310.892 43.3999ZM329.74 37.6999C326.852 37.6999 324.496 35.2679 324.496 32.4559C324.498 31.0659 325.052 29.7336 326.034 28.7508C327.018 27.7679 328.35 27.2146 329.74 27.2119C331.13 27.2146 332.462 27.7679 333.446 28.7508C334.428 29.7336 334.982 31.0659 334.984 32.4559C334.984 35.2679 332.628 37.6999 329.74 37.6999ZM325.636 81.4V43.3999H333.844V81.4H325.636ZM363.332 42.4119C371.844 42.4119 377.924 48.188 377.924 58.068V81.4H369.716V58.904C369.716 53.128 366.372 50.088 361.204 50.088C355.808 50.088 351.552 53.28 351.552 61.032V81.4H343.344V43.3999H351.552V48.264C354.06 44.312 358.164 42.4119 363.332 42.4119ZM416.836 28.1999H425.044V81.4H416.836V75.928C413.948 79.956 409.464 82.388 403.536 82.388C393.2 82.388 384.612 73.648 384.612 62.4C384.612 51.076 393.2 42.4119 403.536 42.4119C409.464 42.4119 413.948 44.844 416.836 48.796V28.1999ZM404.828 74.56C411.668 74.56 416.836 69.468 416.836 62.4C416.836 55.332 411.668 50.24 404.828 50.24C397.988 50.24 392.82 55.332 392.82 62.4C392.82 69.468 397.988 74.56 404.828 74.56ZM452.556 82.388C441.08 82.388 432.492 73.648 432.492 62.4C432.492 51.076 441.08 42.4119 452.556 42.4119C460.004 42.4119 466.464 46.288 469.504 52.216L462.436 56.32C460.764 52.748 457.04 50.468 452.48 50.468C445.792 50.468 440.7 55.56 440.7 62.4C440.7 69.24 445.792 74.332 452.48 74.332C457.04 74.332 460.764 71.976 462.588 68.48L469.656 72.508C466.464 78.512 460.004 82.388 452.556 82.388ZM483.184 53.888C483.184 60.804 503.628 56.624 503.628 70.684C503.628 78.284 497.016 82.388 488.808 82.388C481.208 82.388 475.736 78.968 473.304 73.496L480.372 69.392C481.588 72.812 484.628 74.864 488.808 74.864C492.456 74.864 495.268 73.648 495.268 70.608C495.268 63.844 474.824 67.644 474.824 54.04C474.824 46.896 480.98 42.4119 488.732 42.4119C494.964 42.4119 500.132 45.3 502.792 50.316L495.876 54.192C494.508 51.228 491.848 49.86 488.732 49.86C485.768 49.86 483.184 51.152 483.184 53.888ZM518.22 53.888C518.22 60.804 538.664 56.624 538.664 70.684C538.664 78.284 532.052 82.388 523.844 82.388C516.244 82.388 510.772 78.968 508.34 73.496L515.408 69.392C516.624 72.812 519.664 74.864 523.844 74.864C527.492 74.864 530.304 73.648 530.304 70.608C530.304 63.844 509.86 67.644 509.86 54.04C509.86 46.896 516.016 42.4119 523.768 42.4119C530 42.4119 535.168 45.3 537.828 50.316L530.912 54.192C529.544 51.228 526.884 49.86 523.768 49.86C520.804 49.86 518.22 51.152 518.22 53.888Z" fill="white"/>
<defs>
<filter id="filter0_i_620_2" x="16" y="24" width="108" height="64.8" filterUnits="userSpaceOnUse" color-interpolation-filters="sRGB">
<feFlood flood-opacity="0" result="BackgroundImageFix"/>
<feBlend mode="normal" in="SourceGraphic" in2="BackgroundImageFix" result="shape"/>
<feColorMatrix in="SourceAlpha" type="matrix" values="0 0 0 0 0 0 0 0 0 0 0 0 0 0 0 0 0 0 127 0" result="hardAlpha"/>
<feOffset/>
<feGaussianBlur stdDeviation="1"/>
<feComposite in2="hardAlpha" operator="arithmetic" k2="-1" k3="1"/>
<feColorMatrix type="matrix" values="0 0 0 0 0.988574 0 0 0 0 1 0 0 0 0 0.99989 0 0 0 0.25 0"/>
<feBlend mode="normal" in2="shape" result="effect1_innerShadow_620_2"/>
</filter>
<linearGradient id="paint0_linear_620_2" x1="43" y1="15" x2="88" y2="97" gradientUnits="userSpaceOnUse">
<stop offset="0.356315" stop-color="#97FFFE"/>
<stop offset="0.54328" stop-color="white"/>
</linearGradient>
</defs>
</svg>
