<svg width="44" height="44" viewBox="0 0 44 44" fill="none" xmlns="http://www.w3.org/2000/svg">
<path fill-rule="evenodd" clip-rule="evenodd" d="M9.16669 10.5416C8.5589 10.5416 7.97601 10.7831 7.54624 11.2128C7.11647 11.6426 6.87502 12.2255 6.87502 12.8333V31.1666C6.87502 31.7744 7.11647 32.3573 7.54624 32.7871C7.97601 33.2169 8.5589 33.4583 9.16669 33.4583H34.8334C35.4411 33.4583 36.024 33.2169 36.4538 32.7871C36.8836 32.3573 37.125 31.7744 37.125 31.1666V12.8333C37.125 12.2255 36.8836 11.6426 36.4538 11.2128C36.024 10.7831 35.4411 10.5416 34.8334 10.5416H9.16669ZM5.60169 9.2683C6.54719 8.3228 7.82956 7.79163 9.16669 7.79163H34.8334C36.1705 7.79163 37.4529 8.3228 38.3984 9.2683C39.3438 10.2138 39.875 11.4962 39.875 12.8333V31.1666C39.875 32.5038 39.3438 33.7861 38.3984 34.7316C37.4529 35.6771 36.1705 36.2083 34.8334 36.2083H9.16669C7.82956 36.2083 6.54719 35.6771 5.60169 34.7316C4.6562 33.7861 4.12502 32.5038 4.12502 31.1666V12.8333C4.12502 11.4962 4.6562 10.2138 5.60169 9.2683Z" fill="black"/>
<path fill-rule="evenodd" clip-rule="evenodd" d="M4.35595 12.0706C4.77719 11.4387 5.63088 11.268 6.26274 11.6892L22 22.1807L37.7373 11.6892C38.3692 11.268 39.2229 11.4387 39.6441 12.0706C40.0653 12.7024 39.8946 13.5561 39.2627 13.9774L22.7627 24.9774C22.3009 25.2853 21.6992 25.2853 21.2373 24.9774L4.73731 13.9774C4.10546 13.5561 3.93472 12.7024 4.35595 12.0706Z" fill="black"/>
</svg>
