<svg width="44" height="44" viewBox="0 0 44 44" fill="none" xmlns="http://www.w3.org/2000/svg">
<path fill-rule="evenodd" clip-rule="evenodd" d="M16.5664 6.58893C20.1408 5.75537 23.8592 5.75537 27.4336 6.58893C29.4949 5.28175 31.0888 4.68376 32.2496 4.43141C32.8777 4.29485 33.3756 4.26035 33.7467 4.2686C33.9318 4.27272 34.084 4.28744 34.2035 4.3049C34.2632 4.31362 34.3145 4.32299 34.3576 4.332C34.3792 4.3365 34.3986 4.3409 34.416 4.34509L34.4404 4.35117L34.4515 4.35405L34.4567 4.35545L34.4593 4.35614C34.4605 4.35648 34.4618 4.35681 34.1 5.68337L34.4618 4.35681C34.8584 4.46497 35.1858 4.74489 35.3542 5.11985C36.2194 7.04552 36.3827 9.2038 35.8324 11.2239C37.2537 12.9653 38.0394 15.1504 38.0417 17.4153V17.4167C38.0417 21.9176 36.708 24.9574 34.45 26.9124C32.8032 28.3384 30.7838 29.0793 28.7569 29.4811C28.7775 29.5687 28.7953 29.6579 28.8105 29.749C28.8999 30.2856 28.8901 30.9223 28.8807 31.535C28.8778 31.7212 28.875 31.9051 28.875 32.0834V38.5C28.875 39.2594 28.2594 39.875 27.5 39.875C26.7406 39.875 26.125 39.2594 26.125 38.5V32.0834C26.125 31.7453 26.129 31.4728 26.1323 31.2455C26.1394 30.7546 26.1435 30.4747 26.0979 30.2011C26.0606 29.9778 25.9924 29.7703 25.6111 29.389C25.2366 29.0145 25.1105 28.4584 25.2867 27.959C25.463 27.4597 25.9103 27.1059 26.4368 27.0495C28.912 26.7843 31.0906 26.1836 32.6499 24.8335C34.1502 23.5345 35.2914 21.3497 35.2917 17.4181C35.2898 15.5844 34.5744 13.8234 33.2969 12.508C32.926 12.126 32.8089 11.5643 32.9964 11.0659C33.4819 9.77509 33.5296 8.36893 33.1461 7.06029C33.0523 7.07473 32.9483 7.09375 32.8338 7.11865C31.9807 7.30409 30.5343 7.81861 28.446 9.21077C28.1198 9.42826 27.7162 9.49613 27.3368 9.39731C23.8373 8.48591 20.1627 8.48591 16.6632 9.39731C16.2838 9.49613 15.8802 9.42826 15.5539 9.21077C13.4657 7.81861 12.0193 7.30409 11.1662 7.11865C11.0517 7.09375 10.9476 7.07473 10.8539 7.06029C10.4704 8.36893 10.5181 9.77509 11.0036 11.0659C11.1911 11.5643 11.074 12.126 10.7031 12.508C9.42575 13.8233 8.71037 15.584 8.70833 17.4174C8.70847 21.3494 9.84972 23.5344 11.35 24.8335C12.9094 26.1836 15.0879 26.7843 17.5631 27.0495C18.0897 27.1059 18.537 27.4597 18.7133 27.959C18.8895 28.4584 18.7634 29.0145 18.3889 29.389C18.0222 29.7557 17.8871 30.0613 17.8273 30.3722C17.7569 30.7386 17.7745 31.1936 17.8644 31.9128C17.8714 31.9694 17.875 32.0263 17.875 32.0834V34.8018C17.8755 34.8231 17.8755 34.8443 17.875 34.8655V38.5C17.875 39.2594 17.2594 39.875 16.5 39.875C15.7406 39.875 15.125 39.2594 15.125 38.5V36.602C13.7632 36.8473 12.5752 36.8041 11.5234 36.5099C10.0231 36.0903 8.97111 35.2075 8.17491 34.2919C7.67874 33.7213 7.19631 33.0194 6.7998 32.4426C6.61973 32.1806 6.45738 31.9444 6.31951 31.758C5.78075 31.0296 5.42668 30.745 5.11201 30.6525C4.38348 30.4382 3.96659 29.6739 4.18087 28.9454C4.39514 28.2169 5.15944 27.8 5.88797 28.0142C7.13164 28.38 7.94632 29.333 8.53047 30.1228C8.79 30.4736 9.00648 30.7912 9.21115 31.0915C9.54391 31.5797 9.84545 32.0221 10.2501 32.4874C10.8289 33.153 11.4498 33.6338 12.2641 33.8615C12.9328 34.0486 13.8442 34.0961 15.125 33.7941V32.1678C15.0369 31.4431 14.9742 30.6465 15.1268 29.8529C15.1513 29.7254 15.181 29.5997 15.216 29.4757C13.1983 29.0727 11.1895 28.3321 9.54995 26.9124C7.29202 24.9574 5.95833 21.9176 5.95833 17.4167L5.95833 17.4153C5.96063 15.1504 6.74632 12.9653 8.16757 11.2239C7.61731 9.2038 7.78058 7.04552 8.64577 5.11985C8.81424 4.74489 9.14163 4.46497 9.53821 4.35682L9.89999 5.68337C9.53821 4.35681 9.53945 4.35648 9.5407 4.35614L9.54325 4.35545L9.54848 4.35405L9.55955 4.35117L9.58402 4.34509C9.60139 4.3409 9.62083 4.3365 9.64237 4.332C9.68545 4.32299 9.73681 4.31362 9.79651 4.3049C9.91601 4.28744 10.0681 4.27272 10.2533 4.2686C10.6244 4.26035 11.1222 4.29485 11.7504 4.43141C12.9112 4.68376 14.5051 5.28175 16.5664 6.58893Z" fill="black"/>
</svg>
