<svg width="272" height="53" viewBox="0 0 272 53" fill="none" xmlns="http://www.w3.org/2000/svg">
<g opacity="0.5" filter="url(#filter0_f_620_2)">
<path fill-rule="evenodd" clip-rule="evenodd" d="M37 10C29.8 10 25.3 13.6 23.5 20.8C26.2 17.2 29.35 15.85 32.95 16.75C35.004 17.263 36.472 18.754 38.097 20.403C40.744 23.09 43.808 26.2 50.5 26.2C57.7 26.2 62.2 22.6 64 15.4C61.3 19 58.15 20.35 54.55 19.45C52.496 18.937 51.028 17.446 49.403 15.797C46.756 13.11 43.692 10 37 10ZM23.5 26.2C16.3 26.2 11.8 29.8 10 37C12.7 33.4 15.85 32.05 19.45 32.95C21.504 33.464 22.972 34.954 24.597 36.603C27.244 39.29 30.308 42.4 37 42.4C44.2 42.4 48.7 38.8 50.5 31.6C47.8 35.2 44.65 36.55 41.05 35.65C38.996 35.137 37.528 33.646 35.903 31.997C33.256 29.31 30.192 26.2 23.5 26.2Z" fill="#41D9FB"/>
</g>
<g filter="url(#filter1_i_620_2)">
<path fill-rule="evenodd" clip-rule="evenodd" d="M37 10C29.8 10 25.3 13.6 23.5 20.8C26.2 17.2 29.35 15.85 32.95 16.75C35.004 17.263 36.472 18.754 38.097 20.403C40.744 23.09 43.808 26.2 50.5 26.2C57.7 26.2 62.2 22.6 64 15.4C61.3 19 58.15 20.35 54.55 19.45C52.496 18.937 51.028 17.446 49.403 15.797C46.756 13.11 43.692 10 37 10ZM23.5 26.2C16.3 26.2 11.8 29.8 10 37C12.7 33.4 15.85 32.05 19.45 32.95C21.504 33.464 22.972 34.954 24.597 36.603C27.244 39.29 30.308 42.4 37 42.4C44.2 42.4 48.7 38.8 50.5 31.6C47.8 35.2 44.65 36.55 41.05 35.65C38.996 35.137 37.528 33.646 35.903 31.997C33.256 29.31 30.192 26.2 23.5 26.2Z" fill="url(#paint0_linear_620_2)"/>
</g>
<path d="M25.3166 17.7907C26.0404 17.2044 26.7985 16.7382 27.5921 16.3981C29.3304 15.6531 31.1868 15.5361 33.1317 16.0224L25.3166 17.7907ZM25.3166 17.7907C26.1746 15.89 27.3051 14.3964 28.6935 13.2857C30.7802 11.6163 33.5268 10.75 37 10.75C40.2192 10.75 42.5284 11.4952 44.3441 12.5408C46.1771 13.5964 47.5391 14.9736 48.8687 16.3233L48.8688 16.3234L48.9446 16.4004C50.5124 17.9917 52.1103 19.6137 54.3683 20.1776C56.3132 20.6639 58.1696 20.5469 59.9079 19.8019C60.7015 19.4618 61.4596 18.9955 62.1834 18.4093C61.3254 20.31 60.1949 21.8036 58.8065 22.9143C56.7198 24.5837 53.9732 25.45 50.5 25.45C47.2808 25.45 44.9716 24.7048 43.1559 23.6592C41.3229 22.6036 39.9609 21.2264 38.6313 19.8767L38.6312 19.8766L38.5554 19.7996C36.9877 18.2083 35.3898 16.5864 33.1319 16.0224L25.3166 17.7907ZM48.6834 34.6093C47.8254 36.51 46.6949 38.0036 45.3065 39.1143C43.2198 40.7837 40.4732 41.65 37 41.65C33.7808 41.65 31.4716 40.9048 29.6559 39.8592C27.8229 38.8036 26.4609 37.4264 25.1313 36.0767L25.1312 36.0766L25.0582 36.0025C23.4893 34.41 21.8911 32.7877 19.6321 32.2224L19.6319 32.2224C17.6869 31.7361 15.8304 31.8531 14.0921 32.5981C13.2985 32.9382 12.5404 33.4044 11.8166 33.9907C12.6746 32.09 13.8051 30.5964 15.1935 29.4857C17.2802 27.8163 20.0268 26.95 23.5 26.95C26.7192 26.95 29.0284 27.6952 30.8441 28.7408C32.6771 29.7964 34.0391 31.1736 35.3687 32.5233L35.3688 32.5234C35.3941 32.5491 35.4193 32.5747 35.4446 32.6003C37.0123 34.1917 38.6102 35.8136 40.8681 36.3776C42.8131 36.8639 44.6696 36.7469 46.4079 36.0019C47.2015 35.6618 47.9596 35.1955 48.6834 34.6093Z" stroke="white" stroke-width="1.5"/>
<path d="M63.4348 16.4974C62.5127 19.481 61.0701 21.7437 59.1188 23.3048C56.9233 25.0612 54.0577 25.95 50.5 25.95C47.1963 25.95 44.8005 25.1833 42.9064 24.0925C41.0065 22.9984 39.6006 21.5731 38.2751 20.2276L38.2751 20.2275L38.2444 20.1964C36.6418 18.57 35.1312 17.0371 33.0106 16.5075C31.1623 16.0454 29.4185 16.1594 27.789 16.8577C26.4611 17.4268 25.2207 18.3789 24.0652 19.7026C24.9873 16.719 26.4299 14.4563 28.3812 12.8952C30.5767 11.1388 33.4423 10.25 37 10.25C40.3037 10.25 42.6995 11.0167 44.5936 12.1075C46.4935 13.2016 47.8993 14.6269 49.2249 15.9724L49.2249 15.9725L49.2556 16.0036C50.8582 17.63 52.3688 19.1629 54.4894 19.6925L63.4348 16.4974ZM63.4348 16.4974C62.2793 17.8211 61.0389 18.7732 59.711 19.3423C58.0815 20.0406 56.3377 20.1546 54.4894 19.6925L63.4348 16.4974ZM19.5107 32.7075L19.5106 32.7075C17.6623 32.2454 15.9185 32.3594 14.289 33.0577C12.9611 33.6268 11.7207 34.5789 10.5652 35.9026C11.4873 32.919 12.9299 30.6563 14.8812 29.0952C17.0767 27.3388 19.9423 26.45 23.5 26.45C26.8037 26.45 29.1995 27.2167 31.0936 28.3075C32.9935 29.4016 34.3994 30.8269 35.7249 32.1724L35.7249 32.1725L35.7556 32.2036C37.3582 33.83 38.8688 35.3629 40.9894 35.8925C42.8377 36.3546 44.5815 36.2406 46.211 35.5423C47.5389 34.9732 48.7793 34.0211 49.9348 32.6974C49.0127 35.681 47.5701 37.9437 45.6188 39.5048C43.4233 41.2612 40.5577 42.15 37 42.15C33.6963 42.15 31.3005 41.3833 29.4064 40.2925C27.5065 39.1984 26.1006 37.7731 24.7751 36.4276L24.7751 36.4275L24.7474 36.3995C23.1436 34.7719 21.6325 33.2385 19.5107 32.7075Z" stroke="#97FFFE" stroke-width="0.5"/>
<path fill-rule="evenodd" clip-rule="evenodd" d="M90.996 23.652H86.284V32.772C86.284 35.204 87.88 35.166 90.996 35.014V38.7C84.688 39.46 82.18 37.712 82.18 32.772V23.652H78.684V19.7H82.18V14.596L86.284 13.38V19.7H90.996V23.652ZM108.958 19.7H113.062V38.7H108.958V35.964C107.514 37.978 105.272 39.194 102.308 39.194C97.14 39.194 92.846 34.824 92.846 29.2C92.846 23.538 97.14 19.206 102.308 19.206C105.272 19.206 107.514 20.422 108.958 22.398V19.7ZM102.954 35.28C106.374 35.28 108.958 32.734 108.958 29.2C108.958 25.666 106.374 23.12 102.954 23.12C99.534 23.12 96.95 25.666 96.95 29.2C96.95 32.734 99.534 35.28 102.954 35.28ZM119.902 16.85C118.458 16.85 117.28 15.634 117.28 14.228C117.281 13.533 117.558 12.8668 118.049 12.3754C118.541 11.884 119.207 11.6073 119.902 11.606C120.597 11.6073 121.263 11.884 121.755 12.3754C122.246 12.8668 122.523 13.533 122.524 14.228C122.524 15.634 121.346 16.85 119.902 16.85ZM117.85 38.7V19.7H121.954V38.7H117.85ZM126.704 38.7V10.96H130.808V38.7H126.704ZM157.446 19.7H161.778L155.812 38.7H151.784L147.832 25.894L143.842 38.7H139.814L133.848 19.7H138.18L141.866 32.81L145.856 19.7H149.77L153.722 32.81L157.446 19.7ZM166.87 16.85C165.426 16.85 164.248 15.634 164.248 14.228C164.249 13.533 164.526 12.8668 165.017 12.3754C165.509 11.884 166.175 11.6073 166.87 11.606C167.565 11.6073 168.231 11.884 168.723 12.3754C169.214 12.8668 169.491 13.533 169.492 14.228C169.492 15.634 168.314 16.85 166.87 16.85ZM164.818 38.7V19.7H168.922V38.7H164.818ZM183.666 19.206C187.922 19.206 190.962 22.094 190.962 27.034V38.7H186.858V27.452C186.858 24.564 185.186 23.044 182.602 23.044C179.904 23.044 177.776 24.64 177.776 28.516V38.7H173.672V19.7H177.776V22.132C179.03 20.156 181.082 19.206 183.666 19.206ZM210.418 12.1H214.522V38.7H210.418V35.964C208.974 37.978 206.732 39.194 203.768 39.194C198.6 39.194 194.306 34.824 194.306 29.2C194.306 23.538 198.6 19.206 203.768 19.206C206.732 19.206 208.974 20.422 210.418 22.398V12.1ZM204.414 35.28C207.834 35.28 210.418 32.734 210.418 29.2C210.418 25.666 207.834 23.12 204.414 23.12C200.994 23.12 198.41 25.666 198.41 29.2C198.41 32.734 200.994 35.28 204.414 35.28ZM228.278 39.194C222.54 39.194 218.246 34.824 218.246 29.2C218.246 23.538 222.54 19.206 228.278 19.206C232.002 19.206 235.232 21.144 236.752 24.108L233.218 26.16C232.382 24.374 230.52 23.234 228.24 23.234C224.896 23.234 222.35 25.78 222.35 29.2C222.35 32.62 224.896 35.166 228.24 35.166C230.52 35.166 232.382 33.988 233.294 32.24L236.828 34.254C235.232 37.256 232.002 39.194 228.278 39.194ZM243.592 24.944C243.592 28.402 253.814 26.312 253.814 33.342C253.814 37.142 250.508 39.194 246.404 39.194C242.604 39.194 239.868 37.484 238.652 34.748L242.186 32.696C242.794 34.406 244.314 35.432 246.404 35.432C248.228 35.432 249.634 34.824 249.634 33.304C249.634 29.922 239.412 31.822 239.412 25.02C239.412 21.448 242.49 19.206 246.366 19.206C249.482 19.206 252.066 20.65 253.396 23.158L249.938 25.096C249.254 23.614 247.924 22.93 246.366 22.93C244.884 22.93 243.592 23.576 243.592 24.944ZM261.11 24.944C261.11 28.402 271.332 26.312 271.332 33.342C271.332 37.142 268.026 39.194 263.922 39.194C260.122 39.194 257.386 37.484 256.17 34.748L259.704 32.696C260.312 34.406 261.832 35.432 263.922 35.432C265.746 35.432 267.152 34.824 267.152 33.304C267.152 29.922 256.93 31.822 256.93 25.02C256.93 21.448 260.008 19.206 263.884 19.206C267 19.206 269.584 20.65 270.914 23.158L267.456 25.096C266.772 23.614 265.442 22.93 263.884 22.93C262.402 22.93 261.11 23.576 261.11 24.944Z" fill="white"/>
<defs>
<filter id="filter0_f_620_2" x="0" y="0" width="74" height="52.4" filterUnits="userSpaceOnUse" color-interpolation-filters="sRGB">
<feFlood flood-opacity="0" result="BackgroundImageFix"/>
<feBlend mode="normal" in="SourceGraphic" in2="BackgroundImageFix" result="shape"/>
<feGaussianBlur stdDeviation="5" result="effect1_foregroundBlur_620_2"/>
</filter>
<filter id="filter1_i_620_2" x="10" y="10" width="54" height="32.4" filterUnits="userSpaceOnUse" color-interpolation-filters="sRGB">
<feFlood flood-opacity="0" result="BackgroundImageFix"/>
<feBlend mode="normal" in="SourceGraphic" in2="BackgroundImageFix" result="shape"/>
<feColorMatrix in="SourceAlpha" type="matrix" values="0 0 0 0 0 0 0 0 0 0 0 0 0 0 0 0 0 0 127 0" result="hardAlpha"/>
<feOffset/>
<feGaussianBlur stdDeviation="0.5"/>
<feComposite in2="hardAlpha" operator="arithmetic" k2="-1" k3="1"/>
<feColorMatrix type="matrix" values="0 0 0 0 0.988574 0 0 0 0 1 0 0 0 0 0.99989 0 0 0 0.25 0"/>
<feBlend mode="normal" in2="shape" result="effect1_innerShadow_620_2"/>
</filter>
<linearGradient id="paint0_linear_620_2" x1="23.5" y1="5.5" x2="46" y2="46.5" gradientUnits="userSpaceOnUse">
<stop offset="0.356315" stop-color="#97FFFE"/>
<stop offset="0.54328" stop-color="white"/>
</linearGradient>
</defs>
</svg>
