<svg width="44" height="44" viewBox="0 0 44 44" fill="none" xmlns="http://www.w3.org/2000/svg">
<path fill-rule="evenodd" clip-rule="evenodd" d="M6.10687 6.71184C6.34108 6.24965 6.81523 5.95837 7.33338 5.95837H15.1562C15.5942 5.95837 16.006 6.16705 16.265 6.52026L37.7755 35.8536C38.0819 36.2714 38.1274 36.826 37.8932 37.2882C37.659 37.7504 37.1849 38.0417 36.6667 38.0417H28.8439C28.4059 38.0417 27.9941 37.833 27.7351 37.4798L6.22456 8.14648C5.91816 7.72864 5.87266 7.17403 6.10687 6.71184ZM10.0468 8.70837L29.5407 35.2917H33.9533L14.4594 8.70837H10.0468Z" fill="black"/>
<path fill-rule="evenodd" clip-rule="evenodd" d="M37.639 6.3611C38.176 6.89807 38.176 7.76868 37.639 8.30565L25.2237 20.721C24.6867 21.258 23.8161 21.258 23.2791 20.721C22.7421 20.184 22.7421 19.3134 23.2791 18.7764L35.6944 6.3611C36.2314 5.82413 37.102 5.82413 37.639 6.3611ZM20.7137 23.2864C21.2506 23.8234 21.2506 24.694 20.7137 25.231L8.30565 37.639C7.76868 38.176 6.89808 38.176 6.36111 37.639C5.82414 37.102 5.82414 36.2314 6.36111 35.6944L18.7691 23.2864C19.3061 22.7495 20.1767 22.7495 20.7137 23.2864Z" fill="black"/>
</svg>
